<svg id="图层_1" data-name="图层 1" xmlns="http://www.w3.org/2000/svg" viewBox="0 0 1024 1024"><defs><style>.cls-1{opacity:.8}.cls-2{fill:#fff}.cls-3{opacity:.9}</style></defs><title>图标制作模版</title><path class="cls-1 cls-2" d="M445.22 278.74a12.52 12.52 0 0 1-12.52-12.52v-25a12.52 12.52 0 1 1 25 0v25a12.52 12.52 0 0 1-12.48 12.52zM570.43 278.74a12.47 12.47 0 0 1-7.72-2.67L546 263a12.52 12.52 0 0 1 .44-20l16.7-12a12.52 12.52 0 1 1 14.58 20.36l-3.11 2.23 3.55 2.78a12.52 12.52 0 0 1-7.74 22.38zM636.59 216.14a16.7 16.7 0 0 1-5.41-32.5l13.1-4.49c3-1.11 7.61-4 9.3-6.1.38-1.48 1.13-6.31-2.43-14.3-3.12 1.69-9.19 6-18.61 17L618.6 191.9l-20.41-6.76a16.7 16.7 0 0 1 9.68-31.95c9.1-10.54 34.22-38.71 59.35-25.37 4.64 1.94 8.63 6 11.9 12.17 14.51 27.2 5.79 45.57 3.9 49l-.13.24c-8.2 14.18-25.46 20.71-27.4 21.41l-.24.08-13.25 4.51a16.68 16.68 0 0 1-5.41.91zm16.84-42.6zm-266 42.6a16.66 16.66 0 0 1-5.41-.91l-13.29-4.55c-.17-.06-19-6.63-27.59-21.48l-.17-.3c-1.88-3.41-10.52-21.81 3.94-48.93 3.26-6.13 7.24-10.2 11.87-12.14 25.13-13.37 50.27 14.82 59.37 25.37a16.7 16.7 0 0 1 9.62 32l-20.36 6.69-13.91-16.11c-9.43-11-15.51-15.29-18.63-17-3.55 8-2.82 12.82-2.43 14.3 1.73 2.14 6.53 5.08 9.18 6.06l13.22 4.53a16.7 16.7 0 0 1-5.41 32.49zm-16.84-42.6z"/><path class="cls-1 cls-2" d="M662.25 333a16.7 16.7 0 0 1-16-12.11L612.82 204a16.7 16.7 0 0 1 32.11-9.17l33.39 116.87a16.71 16.71 0 0 1-16.07 21.3zM409.1 558.4a140.69 140.69 0 0 1-97.46-38.69c-26.39-25.1-41.21-58.58-41.73-94.28v-.6a16.7 16.7 0 0 1 33.39 0v.23c.87 55.12 48.31 99.94 105.8 99.94h.57c24.41-.2 42.65-9.25 62.29-20.17 13.35-7.43 24-12.68 40-12.68a16.7 16.7 0 0 1 0 33.39c-7.79 0-13 2.45-23.8 8.48-21.95 12.2-46.07 24.13-78.32 24.38h-.78zM353.4 333a16.71 16.71 0 0 1-16.06-21.29l33.39-116.87a16.7 16.7 0 0 1 32.11 9.16l-33.39 116.9A16.7 16.7 0 0 1 353.4 333z"/><path class="cls-1 cls-2" d="M420.18 191.1a16.7 16.7 0 0 1-6.45-32.1c.43-.18 44.48-18 98.28-18s97.72 17.75 98.16 17.93a16.7 16.7 0 0 1-12.58 30.93c-.79-.31-39.57-15.47-85.57-15.47s-84.55 15.07-85.56 15.47a16.65 16.65 0 0 1-6.28 1.24zM286.61 441.53h-.24a16.7 16.7 0 0 1-16.46-16.93c.51-35.76 15.3-69.32 41.65-94.5a140.05 140.05 0 0 1 97.25-38.83h1.06c32.25.25 56.38 12.22 78.33 24.46 10.83 6 16 8.5 23.79 8.5a16.7 16.7 0 0 1 0 33.39c-16 0-26.69-5.28-40.05-12.73-19.63-10.95-37.87-20-62.26-20.23h-.87c-57.39 0-104.72 45-105.51 100.41a16.7 16.7 0 0 1-16.69 16.46z"/><path class="cls-1 cls-2" d="M737.39 441.53a16.7 16.7 0 0 1-16.69-16.45c-.8-55.37-48.13-100.42-105.51-100.42h-.87c-24.39.2-42.63 9.28-62.27 20.23-13.36 7.45-24.05 12.73-40 12.73a16.7 16.7 0 0 1 0-33.39c7.78 0 13-2.46 23.79-8.5 22-12.24 46.08-24.21 78.33-24.46h1.06a140 140 0 0 1 97.25 38.83c26.35 25.18 41.14 58.74 41.66 94.5a16.7 16.7 0 0 1-16.45 16.94z"/><path class="cls-1 cls-2" d="M615.19 558.4h-1.07c-32.24-.25-56.37-12.18-78.31-24.38-10.83-6-16-8.48-23.81-8.48a16.7 16.7 0 1 1 0-33.39c16 0 26.69 5.26 40 12.69 19.63 10.91 37.87 20 62.28 20.17h.88c57.34 0 104.65-44.82 105.5-99.94v-.23a16.7 16.7 0 0 1 33.39 0v.6c-.51 35.67-15.31 69.15-41.67 94.27a140.24 140.24 0 0 1-97.19 38.69z"/><path class="cls-1 cls-2" d="M507.83 600.14c-73.55 0-143.15-26-191-71.36a16.7 16.7 0 1 1 23-24.23c41.68 39.53 102.91 62.2 168 62.2s126.31-22.67 168-62.2a16.7 16.7 0 1 1 23 24.23c-47.83 45.34-117.46 71.36-191 71.36z"/><g class="cls-3"><path class="cls-2" d="M94.9 763a25 25 0 0 0 0 50H164a25 25 0 0 0 0-50zm77.24 25a8.17 8.17 0 0 1-8.16 8.16H94.9a8.16 8.16 0 0 1 0-16.32H164a8.17 8.17 0 0 1 8.14 8.16z"/><path class="cls-2" d="M48.63 772a2.69 2.69 0 0 0 3.78.47l26.73-20.82h100.6l26.73 20.82a2.69 2.69 0 0 0 3.78-.47l8.27-10.62a2.69 2.69 0 0 0-.47-3.78l-58-45.19a49.75 49.75 0 0 0-61.21 0l-58 45.19a2.69 2.69 0 0 0-.47 3.78zm61.79-44.72a30.92 30.92 0 0 1 38 0l12.27 9.56H98.15zM225.54 845h128.82a2.69 2.69 0 0 0 2.63-2.1l3.41-15.27a2.69 2.69 0 0 0-2.63-3.28H225.54a2.69 2.69 0 0 0-2.69 2.69v15.26a2.69 2.69 0 0 0 2.69 2.7z"/><path class="cls-2" d="M293 873.62h-90.84V854a29.64 29.64 0 0 0-29.61-29.61H86.34A29.64 29.64 0 0 0 56.73 854v19.66H38.87a2.69 2.69 0 0 0-2.69 2.69v14.81a2.69 2.69 0 0 0 2.69 2.69h250.8a2.69 2.69 0 0 0 2.63-2.1l3.31-14.81a2.69 2.69 0 0 0-2.61-3.32zM183.31 854v19.66h-30.57l6.8-30.43h13A10.78 10.78 0 0 1 183.31 854zm-47.81 19.66h-20l6.8-30.43h20zM75.57 854a10.78 10.78 0 0 1 10.77-10.77h18.75l-6.8 30.43H75.57zM383.59 782.4h-27.1l17.44-78a2.69 2.69 0 0 0-2.63-3.28H251a2.69 2.69 0 0 0-2.69 2.69v14.81a2.69 2.69 0 0 0 2.69 2.69h98.42l-13.61 61.09h-60.19l11-42.54a2.69 2.69 0 0 0-2.63-3.28h-15.2a2.69 2.69 0 0 0-2.63 2.1l-11.08 43a17.26 17.26 0 0 0 3 14.34 16.75 16.75 0 0 0 13.3 6.52H384a3.37 3.37 0 0 1 3.36 3.37v15.1c0 16.7-4.47 29.55-13.29 38.19-9.69 9.5-25 14.32-45.42 14.32h-9.45a2.69 2.69 0 0 0-2.63 2.1l-3.31 14.81a2.69 2.69 0 0 0 2.63 3.28h12.8c25.92 0 46-6.76 59.55-20.09 12.83-12.58 19.34-30.28 19.34-52.6V806a23.41 23.41 0 0 0-7.15-17 24.13 24.13 0 0 0-16.84-6.6zM667.06 704.42l-10.8-8.37a3.88 3.88 0 0 0-2.94-.81 4 4 0 0 0-2.65 1.51l-62.47 80.07a4 4 0 0 0 .7 5.6l10.78 8.36a4 4 0 0 0 5.59-.69l11.56-14.81v118.43a4 4 0 0 0 4 4h13.64a4 4 0 0 0 4-4V747.57L667.76 710a4 4 0 0 0-.7-5.58z"/><path class="cls-2" d="M795 729.85a3.91 3.91 0 0 0-3.91-3.91h-87.21L713 714.2a4 4 0 0 0-.7-5.58l-10.79-8.37a4 4 0 0 0-2.94-.81 4 4 0 0 0-2.65 1.5l-50.68 65a4 4 0 0 0 .69 5.6l10.79 8.37a4 4 0 0 0 5.58-.7l24.74-31.71h9.19v146.43a4 4 0 0 0 4 4h13.65a4 4 0 0 0 4-4v-40.79h60.25a4 4 0 0 0 4-4v-13.63a4 4 0 0 0-4-4h-60.27V799h51.63a4 4 0 0 0 4-4v-13.61a4 4 0 0 0-4-4h-51.63v-29.92h73.21a3.91 3.91 0 0 0 3.91-3.91zM596.07 872.57h-80.5V726.45h59a3.6 3.6 0 0 0 3.59-3.6v-14.42a3.6 3.6 0 0 0-3.59-3.59H435a3.6 3.6 0 0 0-3.59 3.59v14.43a3.6 3.6 0 0 0 3.59 3.6h59v146.11h-80.5a3.6 3.6 0 0 0-3.59 3.59v14.43a3.6 3.6 0 0 0 3.59 3.59h182.57a3.6 3.6 0 0 0 3.59-3.59v-14.42a3.6 3.6 0 0 0-3.59-3.6zM986.94 784.08l-43.31-55a4.16 4.16 0 0 0-5.85-.74l-10.49 8.14a4.16 4.16 0 0 0-.74 5.85l17.71 22.51L832.69 772 895 713.46a6.73 6.73 0 0 0 .37-9.5l-5.53-6a6.73 6.73 0 0 0-9.52-.37l-83.44 78.31a6.74 6.74 0 0 0-.38 9.51l5.53 6a6.68 6.68 0 0 0 1.78 1.3 5 5 0 0 0 .75 1.07 5.06 5.06 0 0 0 3.49 1.38h.35L960 785.4a4.07 4.07 0 0 0 .42-.11l9.48 12a4.13 4.13 0 0 0 2.77 1.58 4.47 4.47 0 0 0 .53 0 4.13 4.13 0 0 0 2.54-.87l10.49-8.14a4.16 4.16 0 0 0 .73-5.86zM946 803.61H827.64a19.56 19.56 0 0 0-19.54 19.54v57a19.56 19.56 0 0 0 19.54 19.54h120.89a19.56 19.56 0 0 0 19.54-19.54v-54.44c-.01-14.71-7.24-21.95-22.07-22.1zm.29 72.49a3 3 0 0 1-3 3H832.93a3 3 0 0 1-3-3v-48.9a3 3 0 0 1 3-3h109.79c2.9 0 3.53.38 3.53 4.47z"/></g></svg>